<svg width="31" height="29" viewBox="0 0 31 29" fill="none" xmlns="http://www.w3.org/2000/svg">
<path d="M30.4464 14.3749L25.801 9.73878C26.2901 8.81441 26.5677 7.76194 26.5677 6.64586C26.5677 2.98133 23.5803 0 19.9084 0C16.2365 0 13.2491 2.98133 13.2491 6.64586C13.2491 8.25108 13.8224 9.72519 14.7752 10.875H2.42556C2.24225 10.875 2.06881 10.9579 1.95391 11.1004C0.963067 12.3292 0.963067 14.2542 1.95391 15.483C2.06881 15.6254 2.24225 15.7083 2.42556 15.7083H3.83503C3.56569 16.4812 3.56569 17.3522 3.83503 18.125H1.21479C1.03148 18.125 0.858032 18.2079 0.743129 18.3504C-0.24771 19.5791 -0.24771 21.5042 0.743129 22.733C0.858032 22.8754 1.03148 22.9583 1.21479 22.9583H2.01886C1.62591 24.0859 1.80559 25.4233 2.55935 26.358C2.67426 26.5004 2.8477 26.5833 3.03101 26.5833H6.66334V28.3958C6.66334 28.6402 6.81087 28.8605 7.03705 28.954C7.26328 29.0474 7.52366 28.9958 7.6968 28.823L9.08489 27.4377L10.473 28.823C10.5889 28.9386 10.7437 29 10.9012 29C10.9792 29 11.0579 28.985 11.1327 28.954C11.359 28.8605 11.5064 28.6402 11.5064 28.3958V26.5833H20.5873C20.9216 26.5833 21.1927 26.3128 21.1927 25.9792C21.1927 25.6455 20.9216 25.375 20.5873 25.375H20.2978C19.879 24.667 19.879 23.6663 20.2978 22.9583H20.5873C20.9216 22.9583 21.1927 22.6878 21.1927 22.3541C21.1927 22.0205 20.9216 21.75 20.5873 21.75H18.4816C18.0628 21.0419 18.0628 20.0413 18.4816 19.3333H22.4034C22.7378 19.3333 23.0088 19.0627 23.0088 18.7291C23.0088 18.3955 22.7378 18.125 22.4034 18.125H22.1139C21.6951 17.4169 21.6951 16.4163 22.1139 15.7083H22.4034C22.7378 15.7083 23.0088 15.4377 23.0088 15.1041C23.0088 14.7705 22.7378 14.4999 22.4034 14.4999H19.6932C19.4847 14.1473 19.3743 13.7133 19.3775 13.2705C19.5527 13.2843 19.7297 13.2916 19.9084 13.2916C21.0903 13.2916 22.2011 12.9823 23.1643 12.4412L27.7742 17.0417C28.1426 17.4094 28.6265 17.5932 29.1103 17.5932C29.5942 17.5932 30.0781 17.4094 30.4465 17.0417C30.8034 16.6855 31 16.212 31 15.7083C31 15.2045 30.8033 14.731 30.4464 14.3749ZM10.2956 26.9372L9.5129 26.1561C9.2765 25.9202 8.89317 25.9202 8.6567 26.1561L7.87399 26.9372V24.7709H10.2955L10.2956 26.9372ZM18.9697 25.375H11.5064V24.7709H12.1118C12.4461 24.7709 12.7172 24.5003 12.7172 24.1667C12.7172 23.8331 12.4461 23.5625 12.1118 23.5625H6.05789C5.72354 23.5625 5.4525 23.8331 5.4525 24.1667C5.4525 24.5003 5.72354 24.7709 6.05789 24.7709H6.66328V25.375H3.34666C2.92767 24.6667 2.92931 23.6664 3.34872 22.9584H18.9697C18.7004 23.7312 18.7004 24.6022 18.9697 25.375ZM17.1536 21.75H1.5305C1.11169 21.042 1.11169 20.0414 1.5305 19.3334H17.1536C16.8842 20.1061 16.8842 20.9772 17.1536 21.75ZM20.7859 18.125H5.16301C4.7442 17.417 4.7442 16.4164 5.16301 15.7083H20.7859C20.5166 16.4811 20.5166 17.3522 20.7859 18.125ZM18.3653 14.5H2.74127C2.32247 13.792 2.32247 12.7914 2.74127 12.0833H16.084C16.7101 12.5232 17.4152 12.858 18.1735 13.0624C18.1429 13.5573 18.2088 14.0488 18.3653 14.5ZM14.4599 6.6458C14.4599 3.64755 16.9041 1.20828 19.9084 1.20828C22.9127 1.20828 25.3569 3.64755 25.3569 6.6458C25.3569 9.64405 22.9127 12.0833 19.9084 12.0833C16.9041 12.0833 14.4599 9.64405 14.4599 6.6458ZM29.5902 16.1874C29.3256 16.4516 28.8949 16.4516 28.6303 16.1874L24.1767 11.7428C24.5245 11.4523 24.8422 11.1271 25.1244 10.7725L29.5902 15.2294C29.7185 15.3573 29.789 15.5275 29.789 15.7084C29.789 15.8893 29.7185 16.0594 29.5902 16.1874Z" fill="#3F3D56"/>
</svg>
