<?xml version="1.0" standalone="no"?>
<!DOCTYPE svg PUBLIC "-//W3C//DTD SVG 20010904//EN"
 "http://www.w3.org/TR/2001/REC-SVG-20010904/DTD/svg10.dtd">
<svg version="1.0" xmlns="http://www.w3.org/2000/svg"
 width="29.000000pt" height="30.000000pt" viewBox="0 0 29.000000 30.000000"
 preserveAspectRatio="xMidYMid meet">

<g transform="translate(0.000000,30.000000) scale(0.100000,-0.100000)"
fill="#000000" stroke="none">
<path d="M16 268 c-22 -32 -22 -204 0 -236 14 -21 23 -22 129 -22 144 0 145 1
145 140 0 139 -1 140 -145 140 -106 0 -115 -1 -129 -22z m106 -72 c-6 -50 27
-80 76 -71 l37 7 -24 -26 c-33 -35 -83 -35 -116 -1 -30 30 -32 64 -4 99 27 35
36 33 31 -8z"/>
</g>
</svg>
