<svg width="206" height="208" viewBox="0 0 206 208" fill="none" xmlns="http://www.w3.org/2000/svg">
<path opacity="0.18" d="M201.796 126.313C205.865 115.355 208.38 102.511 202.639 92.3051C198.734 85.3706 191.705 80.8937 184.676 77.1525C164.51 66.4454 142.103 59.3543 124.663 44.6478C121.804 42.2371 119.055 39.6073 115.673 38.0341C112.088 36.3592 108.05 35.9992 104.106 35.6861C87.0412 34.3008 69.5308 33.2676 53.1529 38.2455C36.775 43.2233 21.5686 55.4644 17.7573 72.1824C14.8285 85.0888 18.9054 98.9735 15.1253 111.661C12.0012 122.18 3.76149 130.664 0.988881 141.293C-3.69721 159.044 8.90837 177.789 25.3566 185.906C41.8047 194.022 61.0099 193.733 79.2466 192.269C88.4236 191.525 97.6239 190.492 106.52 188.129C114.509 186.008 122.281 182.806 130.512 182.282C143.352 181.46 157.59 186.923 168.353 179.863C172.109 177.406 174.905 173.649 178.748 171.324C186.699 166.519 190.651 165.227 192.392 155.89C194.36 145.449 198.133 136.19 201.796 126.313Z" fill="#E1CCCC"/>
<path d="M90.3917 132.582C90.3917 132.582 35.0177 139.243 29.3007 153.221C25.494 162.3 21.0574 171.101 16.0234 179.558C16.0234 179.558 62.2673 217.683 98.9282 205.653C135.589 193.623 138.658 185.742 157.176 187.119C175.694 188.497 191.088 167.897 191.088 159.318C191.088 150.74 133.832 133.122 124.608 133.686C115.384 134.249 90.3917 132.582 90.3917 132.582Z" fill="#E1CCCC"/>
<path d="M91.6882 132.049C91.6882 134.014 91.165 130.781 90.3761 132.582C89.3296 134.977 87.5801 141.895 86.4242 144.228C84.4326 148.227 86.3617 153.338 89.7513 156.273C93.1409 159.208 97.6318 160.445 101.998 161.431C108.457 162.887 115.837 163.779 121.156 159.866C126.24 156.101 127.685 149.057 127.263 142.741C126.995 139.608 126.547 136.493 125.92 133.411L122.163 112.936C122.149 112.676 122.077 112.422 121.951 112.194C121.825 111.965 121.649 111.768 121.436 111.618C121.224 111.467 120.98 111.367 120.723 111.324C120.466 111.281 120.203 111.297 119.953 111.371C112.924 111.285 101.584 111.496 95.4449 115.433C89.7123 119.041 91.6726 125.381 91.6882 132.049Z" fill="url(#paint0_linear)"/>
<path d="M91.3368 136.581C92.4312 138.808 94.0215 140.753 95.9851 142.266C97.9487 143.779 100.233 144.82 102.662 145.308C107.566 146.235 112.64 145.312 116.907 142.718C120.391 140.651 123.382 137.528 124.608 133.67C125.198 131.469 125.503 129.202 125.514 126.923L125.819 120.396C123.85 123.26 120.273 124.559 116.837 125.045C108.183 126.242 100.646 123.111 92.5474 120.763C88.7438 119.644 88.8141 121.969 89.1187 125.201C89.478 128.981 89.7201 133.051 91.3368 136.581Z" fill="url(#paint1_linear)"/>
<path d="M77.5595 109.407C77.5595 109.407 91.6178 132.754 101.482 133.85C111.346 134.945 126.131 134.531 136.628 109.978C147.125 85.4253 148.968 52.7641 132.27 46.9488C132.254 46.9488 50.388 25.0416 77.5595 109.407Z" fill="url(#paint2_linear)"/>
<path d="M135.378 110.361C135.081 111.927 134.706 113.633 133.488 114.643C131.817 116.059 129.239 115.597 127.318 114.572C123.413 112.49 120.765 108.624 117.719 105.368C116.401 103.935 114.896 102.687 113.244 101.658L115.017 105.188C115.369 105.828 115.649 106.505 115.853 107.207C116.041 107.978 116.041 108.784 115.853 109.555C115.822 109.731 115.75 109.898 115.642 110.04C115.477 110.206 115.269 110.32 115.041 110.369C114.079 110.616 113.089 110.74 112.096 110.737C110.356 110.921 108.596 110.759 106.918 110.26C106.434 110.08 105.895 109.743 105.848 109.219C105.785 108.491 106.699 108.084 107.41 107.99C108.402 107.99 109.339 107.865 110.315 107.99C111.659 108.115 111.612 108.225 111.62 106.824C111.62 104.812 111.62 102.824 111.565 100.789C109.841 99.9621 107.905 99.6888 106.02 100.006C102.349 100.727 99.6858 103.865 97.6317 106.988C95.5776 110.111 93.6798 113.586 90.5557 115.582C87.0333 117.789 80.7852 117.343 80.2072 112.451C79.5824 107.246 82.605 100.836 85.5025 96.7348C89.3992 91.2574 95.0269 87.2585 101.474 85.386C103.743 84.6654 106.135 84.4177 108.503 84.6581C111.104 84.9947 113.533 86.1608 115.9 87.3036L128.326 93.2832C130.458 94.3085 132.66 95.3886 134.136 97.2436C136.925 100.797 136.222 105.892 135.378 110.361Z" fill="url(#paint3_linear)"/>
<path d="M160.355 44.5146C160.418 45.1017 160.996 45.4773 161.441 45.8922C163.292 47.6688 162.511 50.9248 160.761 52.8032C159.012 54.6816 156.567 55.7461 154.615 57.4132C153.426 58.3589 152.632 59.7154 152.389 61.217C152.045 63.2755 152.646 65.4904 152.725 67.8072C152.751 68.4581 152.722 69.11 152.639 69.7561C151.905 75.2997 149.836 80.581 146.609 85.1435C145.649 86.4506 144.383 87.789 142.767 87.8594C140.15 87.9768 138.658 84.9479 137.956 82.4198C136.527 77.2871 135.483 72.0547 134.831 66.7662C134.582 64.7626 134.389 62.7563 134.254 60.7474C133.738 63.1737 130.231 63.7607 128.162 62.3989C128.044 62.3206 127.935 62.2423 127.818 62.1484C125.983 60.7474 125.03 58.4463 124.014 56.3331C122.921 54.0946 121.421 51.7544 119.024 51.1283C116.306 50.4317 113.557 51.1283 110.768 51.0187C106.496 50.8387 102.216 50.3613 97.9519 50.0404C95.6089 49.8682 93.2659 49.696 91.079 50.5334C90.3112 50.815 89.6036 51.2399 88.9937 51.7857C88.4197 52.2743 87.9716 52.8943 87.6875 53.5932C87.4033 54.2922 87.2915 55.0494 87.3614 55.8009C83.0346 55.6522 82.8784 59.1351 79.6762 62.0623C76.474 64.9895 70.757 67.6819 73.2484 71.2275C75.8414 74.9217 73.881 77.3559 73.6389 81.7232C73.2406 88.9708 71.0147 95.9836 68.8123 102.91C65.4695 98.1125 62.0721 93.1973 60.5725 87.5542C59.7915 84.7131 59.3307 81.9267 58.8075 79.1873C58.0264 74.82 57.0892 70.5231 54.9024 66.2262C53.936 64.5931 53.0927 62.89 52.3797 61.1309C51.4737 58.4463 51.5987 55.5348 51.7861 52.7093C52.1454 46.6748 52.6218 40.1864 56.3785 35.4903C57.7612 33.7997 59.5218 32.4591 61.5176 31.577C64.2668 30.2777 67.2034 29.4794 69.7261 27.5462C71.0667 26.4189 72.1056 24.9743 72.7486 23.3432C74.1232 20.2672 74.8886 16.5808 76.5443 13.951C79.5255 9.35421 83.763 5.71355 88.7516 3.46311C97.0303 -0.332884 106.535 -0.567687 115.564 0.668947C123.038 1.69426 130.528 3.74488 136.737 8.03396C139.371 9.93535 141.837 12.0589 144.11 14.3815C149.679 19.8211 154.904 25.6912 162.261 27.734C164.737 28.4306 167.65 28.8297 169.048 30.9899C170.446 33.1501 169.485 36.3356 167.665 38.2923C165.846 40.249 163.378 41.4231 161.253 43.051C160.847 43.4189 160.293 43.912 160.355 44.5146Z" fill="#3F3D56"/>
<path d="M64.8525 60.7474C63.5248 63.0955 62.5095 65.9131 63.4623 68.449C64.7275 67.7211 66.0084 67.0245 67.2502 66.3201L58.8153 79.156C57.9952 74.7887 57.097 70.4918 54.9102 66.1949C53.9463 64.5617 53.1056 62.8585 52.3953 61.0996C51.4815 58.415 51.6143 55.5035 51.7939 52.678C52.1532 46.6435 52.6374 40.1551 56.3941 35.4591C57.7738 33.7685 59.5318 32.4278 61.5254 31.5457C62.0827 31.8132 62.5837 32.1851 63.0015 32.6414C64.9619 34.7859 65.4461 38.2141 66.2427 40.8908C67.4611 44.9373 69.4839 49.2577 68.4686 53.5624C67.8516 56.1844 66.1646 58.3994 64.8525 60.7474Z" fill="url(#paint4_linear)"/>
<path d="M153.623 52.9364C151.881 55.2844 151.975 58.2273 152.373 61.2171C152.537 62.4459 152.732 63.6747 152.912 64.8487C153.116 65.8324 153.045 66.8531 152.709 67.7994C152.636 67.9642 152.547 68.1215 152.443 68.2691C151.186 69.9831 148.538 69.4431 146.555 68.7387C141.665 67.0011 138.073 67.4551 134.839 66.7272C132.567 66.2106 130.45 65.1618 128.162 62.3598C128.067 62.2569 127.953 62.1743 127.826 62.1172C125.983 60.7162 125.03 58.4073 124.014 56.2941C122.929 54.0556 121.429 51.7154 119.024 51.0971C116.306 50.3927 113.557 51.0971 110.768 50.9875C106.496 50.7996 102.177 50.33 97.9519 50.0091C95.6089 49.8291 93.2658 49.6648 91.0868 50.5022C90.3136 50.7884 89.6028 51.2216 88.9937 51.778C88.0643 51.5667 87.3692 50.9014 87.0255 49.43C86.182 45.7122 87.5644 40.5465 90.2667 37.8933C92.969 35.24 96.921 34.5434 100.678 34.1755C108.667 33.3929 117.227 33.7294 123.936 38.1281C127.014 40.1474 129.591 42.9337 132.863 44.6243C138.822 47.6924 145.953 46.6201 152.6 47.4263C153.724 47.5594 155.029 47.8959 155.45 48.9917C156.005 50.377 154.544 51.7076 153.623 52.9364Z" fill="url(#paint5_linear)"/>
<path d="M98.2566 71.7987C97.3953 70.0793 96.1531 68.5801 94.6249 67.4157C88.7048 62.5709 80.4728 60.4577 73.1235 62.5631C71.696 62.9482 70.3347 63.5472 69.0856 64.3398C67.111 65.759 65.4405 67.5608 64.1731 69.6385C56.1208 81.6292 53.4263 96.3592 52.286 110.721C52.0283 113.977 52.3797 117.437 51.052 120.419C39.946 145.363 15.7501 176.709 16.0469 179.558C24.724 186.837 39.8132 196.816 46.6471 197.067C50.4819 190.022 65.2743 139.258 68.3827 131.846C69.6089 128.934 71.7801 122.548 73.5765 119.949C78.3875 112.968 85.9321 112.905 91.6257 106.644C93.1294 105.115 94.2229 103.23 94.8045 101.165C95.0948 99.3687 95.1395 97.5413 94.9373 95.733C94.7208 91.3414 95.1071 86.9408 96.0854 82.6545C96.8976 79.0463 99.9279 75.5399 98.2566 71.7987Z" fill="url(#paint6_linear)"/>
<path d="M61.1119 84.2202H60.2058C58.4544 84.2202 57.0346 85.6429 57.0346 87.3979V88.5171C57.0346 90.2721 58.4544 91.6948 60.2058 91.6948H61.1119C62.8633 91.6948 64.2831 90.2721 64.2831 88.5171V87.3979C64.2831 85.6429 62.8633 84.2202 61.1119 84.2202Z" fill="#E1CCCC"/>
<path d="M61.7445 84.2202H60.8384C59.087 84.2202 57.6672 85.6429 57.6672 87.3979V88.5171C57.6672 90.2721 59.087 91.6948 60.8384 91.6948H61.7445C63.4959 91.6948 64.9157 90.2721 64.9157 88.5171V87.3979C64.9157 85.6429 63.4959 84.2202 61.7445 84.2202Z" fill="url(#paint7_linear)"/>
<path d="M118.977 71.7987C119.842 70.075 121.093 68.575 122.632 67.4157C128.544 62.5709 136.784 60.4577 144.133 62.5631C145.558 62.9483 146.917 63.5473 148.163 64.3398C150.14 65.7569 151.811 67.5591 153.076 69.6385C161.12 81.6213 163.815 96.3592 164.963 110.721C165.221 113.977 164.862 117.437 166.189 120.419C177.295 145.355 194.126 157.823 193.837 160.672C198.82 176.764 176.655 186.5 167.626 185.671C163.792 178.627 152.006 139.25 148.882 131.83C147.664 128.919 145.492 122.532 143.696 119.933C138.885 112.952 131.356 112.929 125.647 106.628C124.141 105.101 123.048 103.216 122.468 101.149C122.178 99.3531 122.133 97.5256 122.335 95.7174C122.548 91.3258 122.162 86.9257 121.187 82.6388C120.336 79.0463 117.329 75.5399 118.977 71.7987Z" fill="url(#paint8_linear)"/>
<path d="M153.85 84.2202H152.943C151.192 84.2202 149.772 85.6429 149.772 87.3979V88.5171C149.772 90.2721 151.192 91.6948 152.943 91.6948H153.85C155.601 91.6948 157.021 90.2721 157.021 88.5171V87.3979C157.021 85.6429 155.601 84.2202 153.85 84.2202Z" fill="#E1CCCC"/>
<path d="M153.115 84.2202H152.209C150.458 84.2202 149.038 85.6429 149.038 87.3979V88.5171C149.038 90.2721 150.458 91.6948 152.209 91.6948H153.115C154.867 91.6948 156.287 90.2721 156.287 88.5171V87.3979C156.287 85.6429 154.867 84.2202 153.115 84.2202Z" fill="url(#paint9_linear)"/>
<path d="M97.5225 76.1507C97.5225 76.1507 105.645 81.4807 116.571 75.728V93.9723C116.571 93.9723 106.902 87.0925 98.4987 93.9723L97.5225 76.1507Z" fill="#E1CCCC"/>
<path d="M97.5225 76.1507C97.5225 76.1507 105.645 81.4807 116.571 75.728V93.9723C116.571 93.9723 106.902 87.0925 98.4987 93.9723L97.5225 76.1507Z" fill="url(#paint10_linear)"/>
<path d="M116.118 82.2866H98.7876V87.828H116.118V82.2866Z" fill="#E1CCCC"/>
<path opacity="0.69" d="M116.118 82.2866H98.7876V87.828H116.118V82.2866Z" fill="url(#paint11_linear)"/>
<path d="M80.918 107.176C91.9431 107.176 100.881 98.2194 100.881 87.1708C100.881 76.1222 91.9431 67.1655 80.918 67.1655C69.8929 67.1655 60.9552 76.1222 60.9552 87.1708C60.9552 98.2194 69.8929 107.176 80.918 107.176Z" fill="#E1CCCC"/>
<path opacity="0.69" d="M80.918 107.176C91.9431 107.176 100.881 98.2194 100.881 87.1708C100.881 76.1222 91.9431 67.1655 80.918 67.1655C69.8929 67.1655 60.9552 76.1222 60.9552 87.1708C60.9552 98.2194 69.8929 107.176 80.918 107.176Z" fill="url(#paint12_linear)"/>
<path d="M80.8009 104.679C90.3465 104.679 98.0847 96.9242 98.0847 87.3583C98.0847 77.7923 90.3465 70.0376 80.8009 70.0376C71.2552 70.0376 63.517 77.7923 63.517 87.3583C63.517 96.9242 71.2552 104.679 80.8009 104.679Z" fill="white"/>
<path d="M133.316 107.176C144.342 107.176 153.279 98.2194 153.279 87.1708C153.279 76.1222 144.342 67.1655 133.316 67.1655C122.291 67.1655 113.354 76.1222 113.354 87.1708C113.354 98.2194 122.291 107.176 133.316 107.176Z" fill="#E1CCCC"/>
<path opacity="0.69" d="M133.316 107.176C144.342 107.176 153.279 98.2194 153.279 87.1708C153.279 76.1222 144.342 67.1655 133.316 67.1655C122.291 67.1655 113.354 76.1222 113.354 87.1708C113.354 98.2194 122.291 107.176 133.316 107.176Z" fill="url(#paint13_linear)"/>
<path d="M133.191 104.679C142.737 104.679 150.475 96.9242 150.475 87.3583C150.475 77.7923 142.737 70.0376 133.191 70.0376C123.646 70.0376 115.908 77.7923 115.908 87.3583C115.908 96.9242 123.646 104.679 133.191 104.679Z" fill="white"/>
<path d="M106.715 75.9395H105.989C104.738 75.9395 103.724 76.9557 103.724 78.2092V79.3598C103.724 80.6133 104.738 81.6295 105.989 81.6295H106.715C107.966 81.6295 108.98 80.6133 108.98 79.3598V78.2092C108.98 76.9557 107.966 75.9395 106.715 75.9395Z" fill="#E1CCCC"/>
<path opacity="0.69" d="M144.126 14.3894C143.546 15.0866 142.885 15.712 142.157 16.2522C137.011 20.0012 129.841 17.8176 123.936 15.4695C117.438 12.8241 110.862 10.1395 103.833 9.69335C96.8039 9.24722 89.3139 11.47 85.0886 17.0584C82.6909 20.1891 80.754 24.7599 76.7943 24.9791C76.0415 24.9984 75.293 24.8616 74.5955 24.5775C73.8979 24.2933 73.2665 23.8678 72.7408 23.3276C74.1076 20.2517 74.8729 16.5653 76.5287 13.9355C79.5116 9.34013 83.7486 5.69989 88.736 3.44757C97.0225 -0.324947 106.528 -0.551925 115.548 0.676882C123.015 1.70219 130.512 3.75281 136.714 8.04189C139.362 9.94059 141.841 12.0643 144.126 14.3894Z" fill="url(#paint14_linear)"/>
<path opacity="0.69" d="M154.216 30.2308C156.442 31.7336 159.207 32.164 161.886 32.2814C162.866 32.2744 163.843 32.3982 164.791 32.6493C165.264 32.7781 165.7 33.0187 166.062 33.351C166.423 33.6833 166.7 34.0975 166.869 34.559C166.934 35.138 167.09 35.7032 167.329 36.234C167.385 36.3142 167.464 36.3746 167.556 36.4062C167.626 36.4062 167.696 36.3892 167.759 36.3564C167.821 36.3237 167.875 36.2763 167.915 36.2183C168.505 35.561 168.866 34.7304 168.946 33.8504C169.027 32.9703 168.821 32.0879 168.36 31.3344C167.181 29.5108 164.822 28.9864 162.753 28.2898C160.122 27.436 157.649 26.1535 155.435 24.4938C154.146 23.5233 151.17 21.4805 150.983 24.3999C150.834 26.7088 152.389 29.002 154.216 30.2308Z" fill="url(#paint15_linear)"/>
<path opacity="0.69" d="M84.2529 34.5434C85.2136 32.3597 86.2914 30.1134 88.1112 28.5637C90.2902 26.7244 93.2268 26.1139 96.0307 25.6599C99.2473 25.0403 102.518 24.7466 105.793 24.7833C112.189 25.1017 118.354 27.2772 123.538 31.0448C127.763 34.0424 132.129 38.1358 137.245 37.4236C141.65 39.6073 135.495 45.8374 133.871 45.1721C130.552 43.8024 123.772 37.4627 120.484 36.0148C114.017 33.1658 106.692 33.3537 99.6311 33.8311C97.9484 33.8324 96.284 34.1815 94.742 34.8564C93.2825 35.7356 92.0535 36.9511 91.1571 38.402C89.6671 40.3974 88.5674 42.6573 87.9159 45.0626C87.4707 46.9097 88.2518 49.3829 85.8228 48.5533C80.3323 46.6984 82.7456 38.0498 84.2529 34.5434Z" fill="url(#paint16_linear)"/>
<path d="M141.322 87.8909H125.701V91.0216H141.322V87.8909Z" fill="#E1CCCC"/>
<path d="M134.293 88.6733H126.482V90.2387H134.293V88.6733Z" fill="#F2EAC9"/>
<path d="M140.541 85.5427H127.264V87.8908H140.541V85.5427Z" fill="#E1CCCC"/>
<path d="M140.541 85.5427H127.264V87.8908H140.541V85.5427Z" fill="url(#paint17_linear)"/>
<path d="M135.074 85.5427H127.264V87.8908H135.074V85.5427Z" fill="#F2EAC9"/>
<path d="M138.979 83.9775H128.045V85.5429H138.979V83.9775Z" fill="#E1CCCC"/>
<defs>
<linearGradient id="paint0_linear" x1="84.0397" y1="141.836" x2="125.648" y2="137.223" gradientUnits="userSpaceOnUse">
<stop stop-color="#ECC4D7"/>
<stop offset="0.42" stop-color="#EFD4D1"/>
<stop offset="1" stop-color="#F2EAC9"/>
</linearGradient>
<linearGradient id="paint1_linear" x1="9283.11" y1="-18849.8" x2="10634.2" y2="-15964.7" gradientUnits="userSpaceOnUse">
<stop stop-color="#ECC4D7"/>
<stop offset="0.42" stop-color="#EFD4D1"/>
<stop offset="1" stop-color="#F2EAC9"/>
</linearGradient>
<linearGradient id="paint2_linear" x1="18408.9" y1="-75889.1" x2="19826.4" y2="-68187.2" gradientUnits="userSpaceOnUse">
<stop stop-color="#ECC4D7"/>
<stop offset="0.42" stop-color="#EFD4D1"/>
<stop offset="1" stop-color="#F2EAC9"/>
</linearGradient>
<linearGradient id="paint3_linear" x1="107.769" y1="121.1" x2="111.55" y2="-29.6049" gradientUnits="userSpaceOnUse">
<stop stop-opacity="0"/>
<stop offset="0.99"/>
</linearGradient>
<linearGradient id="paint4_linear" x1="3939.16" y1="41723.5" x2="2121.04" y2="41279.6" gradientUnits="userSpaceOnUse">
<stop stop-opacity="0"/>
<stop offset="0.99"/>
</linearGradient>
<linearGradient id="paint5_linear" x1="15853.5" y1="30556.6" x2="21912.8" y2="30556.6" gradientUnits="userSpaceOnUse">
<stop stop-opacity="0"/>
<stop offset="0.99"/>
</linearGradient>
<linearGradient id="paint6_linear" x1="11451.2" y1="-102024" x2="20210.7" y2="-102024" gradientUnits="userSpaceOnUse">
<stop stop-color="#ECC4D7"/>
<stop offset="0.42" stop-color="#EFD4D1"/>
<stop offset="1" stop-color="#F2EAC9"/>
</linearGradient>
<linearGradient id="paint7_linear" x1="1388.12" y1="-5470.33" x2="1455.39" y2="-5470.33" gradientUnits="userSpaceOnUse">
<stop stop-opacity="0"/>
<stop offset="0.99"/>
</linearGradient>
<linearGradient id="paint8_linear" x1="270828" y1="-94313.6" x2="263420" y2="-94313.6" gradientUnits="userSpaceOnUse">
<stop stop-color="#ECC4D7"/>
<stop offset="0.42" stop-color="#EFD4D1"/>
<stop offset="1" stop-color="#F2EAC9"/>
</linearGradient>
<linearGradient id="paint9_linear" x1="2412.16" y1="-5471.9" x2="2318.72" y2="-5469.23" gradientUnits="userSpaceOnUse">
<stop stop-opacity="0"/>
<stop offset="0.99"/>
</linearGradient>
<linearGradient id="paint10_linear" x1="4955.77" y1="15254.8" x2="4974.64" y2="14256.6" gradientUnits="userSpaceOnUse">
<stop stop-opacity="0"/>
<stop offset="0.99"/>
</linearGradient>
<linearGradient id="paint11_linear" x1="107.332" y1="82.4197" x2="107.544" y2="87.0531" gradientUnits="userSpaceOnUse">
<stop offset="0.02" stop-color="white" stop-opacity="0"/>
<stop offset="0.58" stop-color="white" stop-opacity="0.39"/>
<stop offset="0.68" stop-color="white" stop-opacity="0.68"/>
<stop offset="1" stop-color="white"/>
</linearGradient>
<linearGradient id="paint12_linear" x1="8616.19" y1="32882.6" x2="8199.95" y2="33362.7" gradientUnits="userSpaceOnUse">
<stop offset="0.02" stop-color="white" stop-opacity="0"/>
<stop offset="0.58" stop-color="white" stop-opacity="0.39"/>
<stop offset="0.68" stop-color="white" stop-opacity="0.68"/>
<stop offset="1" stop-color="white"/>
</linearGradient>
<linearGradient id="paint13_linear" x1="11411.5" y1="32791.4" x2="10744.8" y2="33191.9" gradientUnits="userSpaceOnUse">
<stop offset="0.02" stop-color="white" stop-opacity="0"/>
<stop offset="0.58" stop-color="white" stop-opacity="0.39"/>
<stop offset="0.68" stop-color="white" stop-opacity="0.68"/>
<stop offset="1" stop-color="white"/>
</linearGradient>
<linearGradient id="paint14_linear" x1="18390.5" y1="-21470.1" x2="18379.9" y2="-25128.5" gradientUnits="userSpaceOnUse">
<stop offset="0.02" stop-color="white" stop-opacity="0"/>
<stop offset="0.58" stop-color="white" stop-opacity="0.39"/>
<stop offset="0.68" stop-color="white" stop-opacity="0.68"/>
<stop offset="1" stop-color="white"/>
</linearGradient>
<linearGradient id="paint15_linear" x1="5726.88" y1="-11246.5" x2="6694.04" y2="-11606.6" gradientUnits="userSpaceOnUse">
<stop offset="0.02" stop-color="white" stop-opacity="0"/>
<stop offset="0.58" stop-color="white" stop-opacity="0.39"/>
<stop offset="0.68" stop-color="white" stop-opacity="0.68"/>
<stop offset="1" stop-color="white"/>
</linearGradient>
<linearGradient id="paint16_linear" x1="12076.6" y1="-20369.9" x2="31457.5" y2="-16330.7" gradientUnits="userSpaceOnUse">
<stop offset="0.02" stop-color="white" stop-opacity="0"/>
<stop offset="0.58" stop-color="white" stop-opacity="0.39"/>
<stop offset="0.68" stop-color="white" stop-opacity="0.68"/>
<stop offset="1" stop-color="white"/>
</linearGradient>
<linearGradient id="paint17_linear" x1="-21038.3" y1="820.719" x2="-21040.2" y2="988.195" gradientUnits="userSpaceOnUse">
<stop stop-opacity="0"/>
<stop offset="0.99"/>
</linearGradient>
</defs>
</svg>
