<svg width="22" height="22" viewBox="0 0 22 22" fill="none" xmlns="http://www.w3.org/2000/svg">
<path fill-rule="evenodd" clip-rule="evenodd" d="M15.3701 13.7311C15.8259 14.1869 15.829 14.9176 15.3733 15.3749C14.9223 15.8259 14.1884 15.829 13.7311 15.3717L10.9984 12.6406L8.26729 15.3717C7.81 15.8259 7.08086 15.829 6.62515 15.3749C6.17258 14.9207 6.171 14.19 6.62829 13.7311L9.35943 11L6.62829 8.26886C6.17572 7.81472 6.171 7.084 6.62515 6.62672C7.07772 6.17258 7.80843 6.171 8.26729 6.62672L10.9984 9.35786L13.7311 6.62672C14.1853 6.17415 14.9191 6.171 15.3733 6.62672C15.8259 7.07929 15.829 7.80843 15.3701 8.26886L12.6406 11L15.3701 13.7311ZM11 0C4.92643 0 0 4.92643 0 11C0 17.0736 4.92643 22 11 22C17.0751 22 22 17.0736 22 11C22 4.92643 17.0751 0 11 0Z" fill="#FF2D55"/>
</svg>
