<svg width="17" height="26" viewBox="0 0 17 26" fill="none" xmlns="http://www.w3.org/2000/svg">
<path fill-rule="evenodd" clip-rule="evenodd" d="M9.2723 25.5388L13.3223 20.7598C13.5903 20.4448 13.5513 19.9708 13.2343 19.7028C13.0933 19.5838 12.9223 19.5258 12.7503 19.5258C12.5373 19.5258 12.3263 19.6148 12.1773 19.7908L9.2503 23.2458V9.74683C9.2503 9.33283 8.9143 8.99683 8.5003 8.99683C8.0863 8.99683 7.7503 9.33283 7.7503 9.74683V23.2368L4.8223 19.7818C4.6743 19.6078 4.4623 19.5178 4.2503 19.5178C4.0783 19.5178 3.9063 19.5758 3.7643 19.6958C3.4493 19.9628 3.4103 20.4368 3.6773 20.7528L7.7283 25.5318C7.73206 25.5362 7.73742 25.5431 7.74433 25.5518C7.82183 25.6503 8.09447 25.9968 8.5003 25.9968C8.91218 25.9968 9.17595 25.6611 9.25535 25.56C9.26251 25.5509 9.26817 25.5437 9.2723 25.5388ZM2.75 2.67029e-05H14.25C15.767 2.67029e-05 17 1.23303 17 2.75003V14.25C17 15.767 15.767 17 14.25 17H12.233V15.5H14.25C14.939 15.5 15.5 14.939 15.5 14.25V2.75003C15.5 2.06103 14.939 1.50003 14.25 1.50003H2.75C2.061 1.50003 1.5 2.06103 1.5 2.75003V14.25C1.5 14.939 2.061 15.5 2.75 15.5H4.809V17H2.75C1.233 17 0 15.767 0 14.25V2.75003C0 1.23303 1.233 2.67029e-05 2.75 2.67029e-05Z" fill="#3F3D56"/>
</svg>
