<svg width="29" height="30" viewBox="0 0 29 30" fill="none" xmlns="http://www.w3.org/2000/svg">
<path fill-rule="evenodd" clip-rule="evenodd" d="M14.5 29.5C22.508 29.5 29 23.008 29 15C29 6.99205 22.508 0.5 14.5 0.5C6.49205 0.5 0 6.99205 0 15C0 23.008 6.49205 29.5 14.5 29.5ZM9.05672 23.47C9.38417 23.3666 9.71359 23.2671 10.0463 23.1777C10.139 23.1529 10.2392 23.1303 10.3427 23.107C10.8429 22.9943 11.4215 22.8639 11.6139 22.3744C11.6139 22.3744 11.9242 21.4518 11.7966 19.8554C11.7966 19.8554 10.8459 19.7137 10.9741 16.9822C10.9741 16.9822 10.2061 17.603 10.0233 16.0596C10.0233 16.0596 9.82209 14.9953 9.67611 14.8001C9.67611 14.8001 9.27371 13.7536 10.0049 13.8953C10.0049 13.8953 9.87666 11.8376 9.78592 11.3762C9.70702 10.9794 9.75305 10.5149 9.82472 10.1218C9.88784 9.77856 9.99896 9.43401 10.2008 9.14178C10.3605 8.91117 10.6058 8.76556 10.849 8.62119C10.9585 8.55625 11.0675 8.49156 11.1681 8.4195C11.2879 8.33363 11.4062 8.24514 11.5246 8.15659C11.8161 7.93853 12.1082 7.72004 12.4252 7.53898C12.6008 7.43944 12.7803 7.34565 12.9644 7.26207C13.0041 7.24394 13.0946 7.22074 13.1942 7.19524C13.354 7.15431 13.5369 7.10746 13.5694 7.06618C13.5694 7.06618 13.7337 6.85307 14.0816 6.85307C14.4531 6.83202 14.8305 6.84861 15.2007 6.88306C15.5367 6.91496 15.8714 6.96601 16.1968 7.05342C16.4613 7.12404 16.7276 7.235 16.9904 7.34454C17.1241 7.40029 17.257 7.45567 17.3883 7.50516C17.6743 7.613 17.9478 7.75273 18.1997 7.92309C18.9433 8.42588 19.3556 9.14561 19.474 10.0108C19.474 10.0108 19.7113 11.7489 19.163 13.7709C19.163 13.7709 20.1506 13.2745 19.474 15.3501C19.474 15.3501 19.2912 15.9709 19.255 16.3078C19.255 16.3078 19.1998 17.1947 18.5054 16.7691C18.5054 16.7691 18.56 19.7137 17.5731 19.8381C17.5731 19.8381 17.4632 22.5167 18.103 22.8C18.103 22.8 18.706 23.2441 20.699 23.6161C20.699 23.6161 22.375 24.1571 23.5625 24.6931C21.2763 26.5594 18.3286 27.6875 15.1067 27.6875C11.7355 27.6875 8.67075 26.4465 6.34375 24.4226C7.23996 24.0831 8.14275 23.7596 9.05672 23.47Z" fill="url(#paint0_linear)"/>
<defs>
<linearGradient id="paint0_linear" x1="1.36689" y1="0.5" x2="1.36689" y2="26.7662" gradientUnits="userSpaceOnUse">
<stop stop-color="#BBBBBD"/>
<stop offset="1" stop-color="#66656A"/>
</linearGradient>
</defs>
</svg>
