<svg width="29" height="29" viewBox="0 0 29 29" fill="none" xmlns="http://www.w3.org/2000/svg">
<path fill-rule="evenodd" clip-rule="evenodd" d="M1.60529 13.5979C1.78605 10.9843 2.741 8.52981 4.37921 6.4687C5.43648 6.92685 6.56424 7.31451 7.74088 7.62033C7.19974 9.50296 6.89165 11.5118 6.82344 13.5979H1.60529ZM13.5979 22.1164V27.2902C12.1143 26.7922 10.7341 25.0847 9.74622 22.5165C10.949 22.2937 12.2416 22.1607 13.5979 22.1164ZM10.3817 26.7547C8.55026 26.1374 6.87909 25.1142 5.48303 23.7523C6.32658 23.418 7.24402 23.1236 8.22058 22.8758C8.80264 24.4298 9.53933 25.7486 10.3817 26.7547ZM8.37976 15.4021H13.5979V20.5441C12.1064 20.5918 10.6466 20.7555 9.24945 21.0307C8.7481 19.289 8.45025 17.3552 8.37976 15.4021ZM13.5979 8.45592V13.5979H8.37976C8.45025 11.6437 8.7481 9.71101 9.24945 7.97049C10.6535 8.24561 12.1132 8.40931 13.5979 8.45592ZM5.48303 5.24771C6.88023 3.88576 8.5514 2.8626 10.3817 2.24642C9.53933 3.25026 8.80378 4.57015 8.22058 6.12423C7.24516 5.87639 6.32658 5.58195 5.48303 5.24771ZM9.74622 6.48348C10.7341 3.91305 12.1154 2.20664 13.5979 1.7121V6.88479C12.2405 6.83931 10.9479 6.70517 9.74622 6.48348ZM7.74088 21.3797C6.56651 21.6866 5.43762 22.0731 4.37921 22.5313C2.741 20.4725 1.78605 18.0169 1.60529 15.4021H6.82344C6.89165 17.4871 7.19974 19.4948 7.74088 21.3797ZM27.3948 15.3964C27.2129 18.0157 26.259 20.4725 24.6208 22.5313C23.5613 22.0732 22.4324 21.6866 21.2592 21.3808C21.7992 19.4982 22.1072 17.4894 22.1766 15.3964H27.3948ZM15.4021 6.88479V1.7121C16.8857 2.20664 18.2658 3.91419 19.2538 6.48348C18.0521 6.70517 16.7595 6.83931 15.4021 6.88479ZM20.7794 6.12423C20.1974 4.57015 19.4607 3.25026 18.6171 2.24642C20.4475 2.8626 22.1198 3.88576 23.5158 5.24771C22.6723 5.58195 21.7548 5.87639 20.7794 6.12423ZM20.6191 13.5979H15.4021V8.45592C16.8914 8.40818 18.3511 8.24447 19.7494 7.97049C20.2508 9.70874 20.5498 11.6425 20.6191 13.5979ZM22.1754 13.5979C22.1072 11.5129 21.7991 9.50523 21.258 7.62147C22.4335 7.31451 23.5613 6.92798 24.6208 6.4687C26.259 8.52867 27.2128 10.9831 27.3936 13.5979H22.1754ZM15.4021 20.5441V15.3964H20.6191C20.5498 17.3563 20.2508 19.2913 19.7494 21.0295C18.3511 20.7544 16.8914 20.5907 15.4021 20.5441ZM23.517 23.7523C22.1209 25.1142 20.4486 26.1374 18.6171 26.7547C19.4607 25.7486 20.1974 24.4298 20.7794 22.8758C21.7571 23.1247 22.6746 23.418 23.517 23.7523ZM19.2526 22.5165C18.2658 25.0847 16.8857 26.7911 15.4021 27.2902V22.1164C16.7538 22.1607 18.0453 22.2937 19.2526 22.5165ZM14.4994 0C6.50508 0 0 6.50508 0 14.5006C0 22.4949 6.50508 29 14.4994 29C22.4949 29 29 22.4949 29 14.5006C29 6.50508 22.4949 0 14.4994 0Z" fill="#A1A1A1"/>
</svg>
